<?xml version="1.0" encoding="UTF-8" standalone="no"?>
<svg
   xmlns:dc="http://purl.org/dc/elements/1.1/"
   xmlns:cc="http://creativecommons.org/ns#"
   xmlns:rdf="http://www.w3.org/1999/02/22-rdf-syntax-ns#"
   xmlns:svg="http://www.w3.org/2000/svg"
   xmlns="http://www.w3.org/2000/svg"
   viewBox="0 0 1122.52 793.70135"
   height="793.70135"
   width="1122.52"
   xml:space="preserve"
   id="svg2"
   version="1.1"><metadata
     id="metadata8"><rdf:RDF><cc:Work
         rdf:about=""><dc:format>image/svg+xml</dc:format><dc:type
           rdf:resource="http://purl.org/dc/dcmitype/StillImage" /></cc:Work></rdf:RDF></metadata><defs
     id="defs6"><clipPath
       id="clipPath30"
       clipPathUnits="userSpaceOnUse"><path
         id="path28"
         d="M 0,595.276 H 841.89 V 0 H 0 Z" /></clipPath></defs><g
     transform="matrix(1.3333333,0,0,-1.3333333,0,793.70133)"
     id="g10"><g
       transform="translate(795.616,404.1865)"
       id="g12"><path
         id="path14"
         style="fill:#bf1b2c;fill-opacity:1;fill-rule:nonzero;stroke:none"
         d="m 0,0 -66.313,-98.041 -0.312,-0.456 -81.067,-117.607 h -62.03 l 35.855,53.01 29.33,43.352 11.804,17.454 -11.804,17.67 -18.342,27.458 -38.17,57.16 h 63.301 L -100.884,-55.193 -63.554,0 Z" /></g><g
       transform="translate(802.2136,188.0826)"
       id="g16"><path
         id="path18"
         style="fill:#231f20;fill-opacity:1;fill-rule:nonzero;stroke:none"
         d="m 0,0 h -63.314 l -37.607,56.296 32.161,46.652 z" /></g><g
       transform="translate(351.2117,338.9373)"
       id="g20"><path
         id="path22"
         style="fill:#231f20;fill-opacity:1;fill-rule:nonzero;stroke:none"
         d="m 0,0 h -5.533 l -11.277,-38.366 9.774,-31.858 h -19.148 l -7.213,-24.54 H 0.235 L 5.921,-113.5 h 36.721 z m -38.26,0 -42.654,-113.5 h 35.805 l 5.533,18.736 h 0.059 L -11.653,0 Z" /></g><g
       id="g24"><g
         clip-path="url(#clipPath30)"
         id="g26"><g
           transform="translate(500.1293,258.3289)"
           id="g32"><path
             id="path34"
             style="fill:#231f20;fill-opacity:1;fill-rule:nonzero;stroke:none"
             d="m 0,0 c -0.822,1.656 -2.467,4.006 -4.91,7.048 -2.455,3.054 -4.323,5.04 -5.615,5.968 -1.903,1.398 -4.946,2.796 -9.128,4.182 5.216,1.186 9.328,2.69 12.323,4.499 4.699,2.831 8.387,6.543 11.078,11.113 2.678,4.557 4.029,9.996 4.029,16.293 0,7.224 -1.762,13.356 -5.275,18.384 -3.5,5.039 -8.129,8.481 -13.85,10.337 -5.732,1.856 -14.014,2.784 -24.856,2.784 H -53.696 V 57.69 h 9.668 c 6.402,0 10.761,-0.975 13.086,-2.937 2.326,-1.962 3.489,-4.781 3.489,-8.434 0,-2.479 -0.74,-4.676 -2.208,-6.59 -1.469,-1.903 -3.372,-3.09 -5.698,-3.56 -4.593,-1.034 -7.682,-1.55 -9.28,-1.55 h -9.057 V 12.957 c 2.162,-0.352 4.147,-1.151 5.956,-2.408 1.856,-1.351 3.971,-4.264 6.344,-8.752 l 18.748,-34.689 h 39.635 z m -94.658,-32.892 h 35.088 v 113.5 h -35.088 z" /></g><path
           id="path36"
           style="fill:#231f20;fill-opacity:1;fill-rule:nonzero;stroke:none"
           d="m 527.958,225.437 h 28.592 v 113.5 h -28.592 z m 81.572,113.5 -17.668,-69.061 -17.785,69.061 h -11.653 v -49.455 l 16.34,-64.045 h 25.997 l 22.143,86.564 v -86.564 h 28.721 v 113.5 z" /><g
           transform="translate(256.02,398.4956)"
           id="g38"><path
             id="path40"
             style="fill:#231f20;fill-opacity:1;fill-rule:nonzero;stroke:none"
             d="m 0,0 c -24.02,-11.46 -50.72,-17.31 -86.91,-18.78 0.63,-5.23 1.1,-10.48 1.41,-15.72 31.85,1.35 56.92,6 79.42,14.72 -4.88,-34.89 -14.8,-68.21 -29.56,-99.24 -11.77,-24.72 -26.65,-47.72 -43.92,-68.02 v -23.53 c 23.32,24.4 43.16,53.27 58.15,84.78 C -3.98,-89.16 7,-49.5 11.23,-7.91 l 1.42,13.95 z m -106.74,-235.53 0.16,-0.14 0.16,0.14 z m -19.27,217.03 c -29.12,1.95 -58.52,8.24 -87.65,18.8 l -12.02,4.35 1.51,-12.69 c 4.9,-41.09 16.12,-80.33 33.36,-116.62 15.16,-31.92 34.42,-60.48 57.42,-85.22 V -186 c -16.88,20.38 -31.33,43.16 -43.18,68.1 -14.74,31.05 -24.9,64.36 -30.24,99.2 26.39,-8.51 52.97,-13.71 79.37,-15.51 0.33,5.24 0.8,10.48 1.43,15.71 m 19.41,-0.66 h -0.71 c -0.06,-5.24 -0.07,-10.51 -0.03,-15.76 0.25,-0.01 0.51,-0.01 0.76,-0.01 0.04,5.25 0.04,10.52 -0.02,15.77" /></g><g
           transform="translate(128.1,342.2256)"
           id="g42"><path
             id="path44"
             style="fill:#bf1b2c;fill-opacity:1;fill-rule:nonzero;stroke:none"
             d="m 0,0 c -18.87,1.86 -37.53,6.17 -55.38,12.52 3.08,-26.5 9.91,-52.51 19.85,-77.27 -14.4,25.31 -23.5,53.49 -27.73,82.28 l -0.83,5.73 c 14.77,-4.98 29.9,-9.17 45.23,-11.7 C -12.62,10.48 -6.33,9.68 -0.02,9.12 -0.07,6.08 -0.06,3.04 0,0" /></g><g
           transform="translate(149.23,350.3556)"
           id="g46"><path
             id="path48"
             style="fill:#bf1b2c;fill-opacity:1;fill-rule:nonzero;stroke:none"
             d="M 0,0 C -0.05,-2.01 -0.11,-4 -0.17,-5.99 -0.23,-4 -0.29,-2.01 -0.34,0 Z" /></g><g
           transform="translate(158.8,341.2656)"
           id="g50"><path
             id="path52"
             style="fill:#bf1b2c;fill-opacity:1;fill-rule:nonzero;stroke:none"
             d="m 0,0 c -1.94,-0.05 -3.88,-0.09 -5.82,-0.1 -0.02,3.2 -0.05,6.26 -0.08,9.19 1.95,0 3.91,0.03 5.86,0.08 C 0,5.91 0.02,2.85 0,0" /></g><g
           transform="translate(235.09,366.1656)"
           id="g54"><path
             id="path56"
             style="fill:#bf1b2c;fill-opacity:1;fill-rule:nonzero;stroke:none"
             d="m 0,0 c -1.88,-16.73 -5.21,-33.38 -10.4,-49.39 -4.53,-13.92 -10.37,-27.41 -17.62,-40.12 1.65,4.21 3.26,8.51 4.79,12.76 7.35,20.92 12.24,42.68 14.5,64.72 -17.45,-7.61 -36.48,-11.1 -55.37,-12.33 0.06,3.04 0.07,6.08 0.03,9.12 C -41.96,-14.16 -19.98,-9.62 0,0" /></g><g
           transform="translate(151.18,192.3756)"
           id="g58"><path
             id="path60"
             style="fill:#ffffff;fill-opacity:1;fill-rule:nonzero;stroke:none"
             d="M 0,0 C -1.12,37.26 -1.11,74.96 0,112.23 1.1,74.96 1.11,37.26 0,0" /></g><g
           transform="translate(149.44,363.5656)"
           id="g62"><path
             id="path64"
             style="fill:#ffffff;fill-opacity:1;fill-rule:nonzero;stroke:none"
             d="m 0,0 c -0.04,-4.43 -0.11,-8.84 -0.21,-13.21 -0.05,-2.01 -0.11,-4 -0.17,-5.99 -0.06,1.99 -0.12,3.98 -0.17,5.99 -0.1,4.37 -0.17,8.79 -0.21,13.22 -0.04,5.25 -0.03,10.52 0.03,15.76 0.05,5.77 0.17,11.52 0.35,17.17 0.18,-5.65 0.3,-11.39 0.36,-17.17 C 0.04,10.52 0.04,5.25 0,0" /></g><g
           transform="translate(158.8,341.2656)"
           id="g66"><path
             id="path68"
             style="fill:#ffffff;fill-opacity:1;fill-rule:nonzero;stroke:none"
             d="m 0,0 c 0,-2.19 -0.02,-4.26 -0.05,-6.19 -1.89,-0.35 -3.81,-0.54 -5.73,-0.56 -0.01,2.28 -0.02,4.5 -0.04,6.65 -0.02,3.2 -0.05,6.26 -0.08,9.19 -0.06,4.73 -0.12,9.14 -0.2,13.23 -0.11,5.87 -0.24,11.1 -0.38,15.76 -0.83,27.93 -1.97,35.34 -1.14,35.41 1.44,0.13 5.76,-21.74 6.87,-35.22 v -0.13 c 0.2,-5.52 0.36,-10.79 0.48,-15.76 0.11,-4.68 0.19,-9.1 0.23,-13.21 C 0,5.91 0.02,2.85 0,0" /></g><g
           transform="translate(149.28,162.9656)"
           id="g70"><path
             id="path72"
             style="fill:#ffffff;fill-opacity:1;fill-rule:nonzero;stroke:none"
             d="M 0,0 H 0.32 L 0.16,-0.14 Z" /></g><g
           transform="translate(163.41,319.2556)"
           id="g74"><path
             id="path76"
             style="fill:#ffffff;fill-opacity:1;fill-rule:nonzero;stroke:none"
             d="m 0,0 v -133.58 c -0.49,-0.6 -2.15,-1.34 -3.22,-1.34 -1.09,0 -2.17,0.04 -3.26,0.04 V -0.34 c 0,0.91 -0.09,1.81 -0.27,2.7 -1,3.1 -1.99,6.21 -2.99,9.32 1.89,0.05 3.77,0.25 5.63,0.59 C -2.87,8.83 -1.65,5.82 -0.39,2.28 -0.13,1.57 0,0.78 0,0" /></g><g
           transform="translate(163.41,185.6756)"
           id="g78"><path
             id="path80"
             style="fill:#231f20;fill-opacity:1;fill-rule:nonzero;stroke:none"
             d="m 0,0 c -0.49,-0.6 -2.15,-1.34 -3.22,-1.34 -1.09,0 -2.17,0.04 -3.26,0.04 v 134.54 c 0,0.91 -0.09,1.81 -0.27,2.7 -1,3.1 -1.99,6.21 -2.99,9.32 1.89,0.05 3.77,0.25 5.63,0.59 1.24,-3.44 2.46,-6.45 3.72,-9.99 0.26,-0.71 0.39,-1.5 0.39,-2.28 z m -14.7,193.66 c 0.05,5.77 0.17,11.52 0.35,17.17 0.18,-5.65 0.3,-11.39 0.36,-17.17 0.06,-5.25 0.06,-10.52 0.02,-15.77 -0.04,-4.43 -0.11,-8.84 -0.21,-13.21 -0.05,-2.01 -0.11,-4 -0.17,-5.99 -0.06,1.99 -0.12,3.98 -0.17,5.99 -0.1,4.37 -0.17,8.79 -0.21,13.22 -0.04,5.25 -0.03,10.52 0.03,15.76 m 2.47,-74.73 c 1.1,-37.27 1.11,-74.97 0,-112.23 -1.12,37.26 -1.11,74.96 0,112.23 m 0,110.15 c 1.44,0.13 5.76,-21.74 6.87,-35.22 v -0.13 c 0.2,-5.52 0.36,-10.79 0.48,-15.76 0.11,-4.68 0.19,-9.1 0.23,-13.21 0.04,-3.26 0.06,-6.32 0.04,-9.17 0,-2.19 -0.02,-4.26 -0.05,-6.19 -1.89,-0.35 -3.81,-0.54 -5.73,-0.56 -0.01,2.28 -0.02,4.5 -0.04,6.65 -0.02,3.2 -0.05,6.26 -0.08,9.19 -0.06,4.73 -0.12,9.14 -0.2,13.23 -0.11,5.87 -0.24,11.1 -0.38,15.76 -0.83,27.93 -1.97,35.34 -1.14,35.41 m 13.66,-82.2 c 0.16,2.9 0.27,5.89 0.33,8.95 0.06,2.98 0.08,6.03 0.04,9.14 -0.05,3.56 -0.17,7.2 -0.37,10.93 -0.04,0.74 -0.08,1.48 -0.14,2.21 -0.32,5.42 -0.81,10.67 -1.41,15.73 -1.62,13.53 -4.11,25.72 -6.89,36.4 -1.91,7.94 -4.01,13.51 -6.85,13.51 -2.84,0 -5.21,-5.25 -6.86,-13.51 -2.77,-10.64 -5.25,-22.78 -6.87,-36.25 -0.61,-5.06 -1.1,-10.3 -1.43,-15.72 -0.05,-0.79 -0.1,-1.58 -0.14,-2.37 -0.2,-3.64 -0.31,-7.2 -0.36,-10.67 -0.05,-3.13 -0.04,-6.18 0.03,-9.17 0.05,-3.14 0.17,-6.2 0.33,-9.18 l -5.81,-13.19 V -1.36 l 4.75,-3.7 -1.12,-1.74 -3.63,-5.64 v -7.39 c 5.13,-1.42 12.26,-2.85 20.84,-2.88 h 0.32 c 8.67,0.01 15.88,1.44 21.05,2.88 v 7.39 l -3.47,5.39 -1.28,1.99 4.75,3.7 v 135.05 z" /></g><g
           transform="translate(151.18,192.3756)"
           id="g82"><path
             id="path84"
             style="fill:#231f20;fill-opacity:1;fill-rule:nonzero;stroke:none"
             d="M 0,0 C -1.12,37.26 -1.11,74.96 0,112.23 1.1,74.96 1.11,37.26 0,0" /></g><g
           transform="translate(149.44,363.5656)"
           id="g86"><path
             id="path88"
             style="fill:#231f20;fill-opacity:1;fill-rule:nonzero;stroke:none"
             d="m 0,0 c -0.04,-4.43 -0.11,-8.84 -0.21,-13.21 -0.05,-2.01 -0.11,-4 -0.17,-5.99 -0.06,1.99 -0.12,3.98 -0.17,5.99 -0.1,4.37 -0.17,8.79 -0.21,13.22 -0.04,5.25 -0.03,10.52 0.03,15.76 0.05,5.77 0.17,11.52 0.35,17.17 0.18,-5.65 0.3,-11.39 0.36,-17.17 C 0.04,10.52 0.04,5.25 0,0" /></g><g
           transform="translate(158.8,341.2656)"
           id="g90"><path
             id="path92"
             style="fill:#231f20;fill-opacity:1;fill-rule:nonzero;stroke:none"
             d="m 0,0 c 0,-2.19 -0.02,-4.26 -0.05,-6.19 -1.89,-0.35 -3.81,-0.54 -5.73,-0.56 -0.01,2.28 -0.02,4.5 -0.04,6.65 -0.02,3.2 -0.05,6.26 -0.08,9.19 -0.06,4.73 -0.12,9.14 -0.2,13.23 -0.11,5.87 -0.24,11.1 -0.38,15.76 -0.83,27.93 -1.97,35.34 -1.14,35.41 1.44,0.13 5.76,-21.74 6.87,-35.22 v -0.13 c 0.2,-5.52 0.36,-10.79 0.48,-15.76 0.11,-4.68 0.19,-9.1 0.23,-13.21 C 0,5.91 0.02,2.85 0,0" /></g><g
           transform="translate(163.41,319.2556)"
           id="g94"><path
             id="path96"
             style="fill:#231f20;fill-opacity:1;fill-rule:nonzero;stroke:none"
             d="m 0,0 v -133.58 c -0.49,-0.6 -2.15,-1.34 -3.22,-1.34 -1.09,0 -2.17,0.04 -3.26,0.04 V -0.34 c 0,0.91 -0.09,1.81 -0.27,2.7 -1,3.1 -1.99,6.21 -2.99,9.32 1.89,0.05 3.77,0.25 5.63,0.59 C -2.87,8.83 -1.65,5.82 -0.39,2.28 -0.13,1.57 0,0.78 0,0" /></g><g
           transform="translate(158.8,341.2656)"
           id="g98"><path
             id="path100"
             style="fill:#ffffff;fill-opacity:1;fill-rule:nonzero;stroke:none"
             d="m 0,0 c 0,-2.19 -0.02,-4.26 -0.05,-6.19 -1.89,-0.35 -3.81,-0.54 -5.73,-0.56 -0.01,2.28 -0.02,4.5 -0.04,6.65 -0.02,3.2 -0.05,6.26 -0.08,9.19 -0.06,4.73 -0.12,9.14 -0.2,13.23 -0.11,5.87 -0.24,11.1 -0.38,15.76 -0.83,27.93 -1.97,35.34 -1.14,35.41 1.44,0.13 5.76,-21.74 6.87,-35.22 v -0.13 c 0.2,-5.52 0.36,-10.79 0.48,-15.76 0.11,-4.68 0.19,-9.1 0.23,-13.21 C 0,5.91 0.02,2.85 0,0" /></g><g
           transform="translate(163.41,319.2556)"
           id="g102"><path
             id="path104"
             style="fill:#ffffff;fill-opacity:1;fill-rule:nonzero;stroke:none"
             d="m 0,0 v -133.58 c -0.49,-0.6 -2.15,-1.34 -3.22,-1.34 -1.09,0 -2.17,0.04 -3.26,0.04 V -0.34 c 0,0.91 -0.09,1.81 -0.27,2.7 -1,3.1 -1.99,6.21 -2.99,9.32 1.89,0.05 3.77,0.25 5.63,0.59 C -2.87,8.83 -1.65,5.82 -0.39,2.28 -0.13,1.57 0,0.78 0,0" /></g><g
           transform="translate(151.18,192.3756)"
           id="g106"><path
             id="path108"
             style="fill:#ffffff;fill-opacity:1;fill-rule:nonzero;stroke:none"
             d="M 0,0 C -1.12,37.26 -1.11,74.96 0,112.23 1.1,74.96 1.11,37.26 0,0" /></g><g
           transform="translate(149.44,363.5656)"
           id="g110"><path
             id="path112"
             style="fill:#ffffff;fill-opacity:1;fill-rule:nonzero;stroke:none"
             d="m 0,0 c -0.04,-4.43 -0.11,-8.84 -0.21,-13.21 -0.05,-2.01 -0.11,-4 -0.17,-5.99 -0.06,1.99 -0.12,3.98 -0.17,5.99 -0.1,4.37 -0.17,8.79 -0.21,13.22 -0.04,5.25 -0.03,10.52 0.03,15.76 0.05,5.77 0.17,11.52 0.35,17.17 0.18,-5.65 0.3,-11.39 0.36,-17.17 C 0.04,10.52 0.04,5.25 0,0" /></g><g
           transform="translate(286.799,198.6076)"
           id="g114"><path
             id="path116"
             style="fill:#231f20;fill-opacity:1;fill-rule:nonzero;stroke:none"
             d="m 0,0 h -14.613 v -8.472 h 14.608 c 2.337,0 4.237,1.901 4.237,4.237 C 4.232,-1.901 2.333,-0.002 0,0 m 3.266,0.951 c 1.721,-1.088 2.866,-3.001 2.866,-5.186 0,-3.391 -2.747,-6.138 -6.137,-6.138 H -16.513 V 1.901 H 0 c 2.333,0.002 4.232,1.9 4.232,4.236 0,2.336 -1.9,4.235 -4.237,4.235 h -16.508 v 1.901 h 16.508 c 3.39,0 6.137,-2.747 6.137,-6.136 0,-2.185 -1.145,-4.099 -2.866,-5.186" /></g><g
           transform="translate(320.7537,210.8807)"
           id="g118"><path
             id="path120"
             style="fill:#231f20;fill-opacity:1;fill-rule:nonzero;stroke:none"
             d="m 0,0 h 1.901 v -11.322 c 0,-6.254 -5.07,-11.324 -11.324,-11.324 -6.252,0 -11.322,5.07 -11.322,11.324 V 0 h 1.901 v -11.322 c 0,-5.196 4.227,-9.423 9.421,-9.423 5.196,0 9.423,4.227 9.423,9.423 z" /></g><g
           transform="translate(350.6739,190.1357)"
           id="g122"><path
             id="path124"
             style="fill:#231f20;fill-opacity:1;fill-rule:nonzero;stroke:none"
             d="M 0,0 H 1.703 V -1.901 H -4.434 -20.942 V -0.44 0 20.745 h 1.9 V 0 h 14.608 z" /></g><g
           transform="translate(380.3969,190.1357)"
           id="g126"><path
             id="path128"
             style="fill:#231f20;fill-opacity:1;fill-rule:nonzero;stroke:none"
             d="M 0,0 H 1.704 V -1.901 H -4.434 -20.942 V -0.44 0 20.745 h 1.9 V 0 h 14.608 z" /></g><g
           transform="translate(400.4999,210.8807)"
           id="g130"><path
             id="path132"
             style="fill:#231f20;fill-opacity:1;fill-rule:nonzero;stroke:none"
             d="M 0,0 H 11.323 V -1.901 H 0 c -4.875,0 -8.896,-3.72 -9.375,-8.471 h 20.698 v -1.901 H -9.375 c 0.479,-4.751 4.5,-8.472 9.375,-8.472 h 11.323 v -1.901 H 0 c -6.253,0 -11.322,5.07 -11.322,11.324 C -11.322,-5.068 -6.253,0 0,0" /></g><g
           transform="translate(418.9007,210.8807)"
           id="g134"><path
             id="path136"
             style="fill:#231f20;fill-opacity:1;fill-rule:nonzero;stroke:none"
             d="M 0,0 H 22.646 V -1.901 H 12.273 v -20.745 h -1.9 V -1.901 L 0,-1.901 Z" /></g><g
           transform="translate(450.5244,200.507)"
           id="g138"><path
             id="path140"
             style="fill:#231f20;fill-opacity:1;fill-rule:nonzero;stroke:none"
             d="m 0,0 14.608,0.001 c 1.239,0 4.236,1.901 4.236,4.237 0,2.336 -1.899,4.235 -4.236,4.235 H 0 Z m 20.745,4.238 c 0,-3.389 -2.747,-6.137 -6.137,-6.137 H 0 v -10.373 h -1.901 v 22.646 h 16.509 c 3.39,0 6.137,-2.747 6.137,-6.136" /></g><g
           transform="translate(480.2425,200.5082)"
           id="g142"><path
             id="path144"
             style="fill:#231f20;fill-opacity:1;fill-rule:nonzero;stroke:none"
             d="m 0,0 h 14.617 c 2.334,0.002 4.232,1.901 4.232,4.237 0,2.335 -1.901,4.235 -4.236,4.235 L 0,8.472 Z m 17.884,-0.95 c 1.72,-1.088 2.866,-3 2.866,-5.186 v -6.137 h -1.901 v 6.137 c 0,2.333 -1.898,4.233 -4.232,4.235 H 0.005 v -10.372 h -1.901 v 22.645 h 16.509 c 3.39,0 6.137,-2.747 6.137,-6.135 0,-2.186 -1.146,-4.1 -2.866,-5.187" /></g><g
           transform="translate(528.8147,200.5076)"
           id="g146"><path
             id="path148"
             style="fill:#231f20;fill-opacity:1;fill-rule:nonzero;stroke:none"
             d="m 0,0 c 0,5.196 -4.227,9.422 -9.423,9.422 -5.194,0 -9.421,-4.226 -9.421,-9.422 0,-5.196 4.227,-9.423 9.421,-9.423 C -4.227,-9.423 0,-5.196 0,0 m 1.901,0 c 0,-6.254 -5.07,-11.323 -11.324,-11.323 -6.252,0 -11.322,5.069 -11.322,11.323 0,6.254 5.07,11.322 11.322,11.322 C -3.169,11.322 1.901,6.254 1.901,0" /></g><g
           transform="translate(590.1613,210.8807)"
           id="g150"><path
             id="path152"
             style="fill:#231f20;fill-opacity:1;fill-rule:nonzero;stroke:none"
             d="m 0,0 v -1.901 h -1.703 -4.434 -14.608 v -8.467 l 14.608,-0.004 v -1.901 h -14.608 v -10.373 h -1.901 V -1.901 -1.461 0 l 16.509,0 z" /></g><g
           transform="translate(558.5377,200.8912)"
           id="g154"><path
             id="path156"
             style="fill:#231f20;fill-opacity:1;fill-rule:nonzero;stroke:none"
             d="m 0,0 c 0,5.196 -4.227,9.422 -9.423,9.422 -5.194,0 -9.421,-4.226 -9.421,-9.422 0,-5.196 4.227,-9.423 9.421,-9.423 C -4.227,-9.423 0,-5.196 0,0 m 1.901,0 c 0,-6.254 -5.07,-11.323 -11.324,-11.323 -6.252,0 -11.322,5.069 -11.322,11.323 0,6.254 5.07,11.322 11.322,11.322 C -3.169,11.322 1.901,6.254 1.901,0" /></g></g></g></g></svg>